<svg t="1598406912001" class="icon" viewBox="0 0 1024 1024" version="1.1" xmlns="http://www.w3.org/2000/svg" p-id="3867" width="200" height="200"><path d="M735.616606 805.162441c7.56088 20.54277 19.829479 46.36389 41.79883 73.183616 56.635274 69.474505 160.347729 144.512678 160.347729 144.512678h-830.27027s106.993592-78.889941 164.912789-149.933686c16.548342-20.257453 26.962385-39.658958 34.095291-56.492617-131.245472-74.182223-220.26414-216.983004-220.26414-381.039844 0-240.236278 190.591251-435.107272 425.691836-435.107272 235.100585 0 425.691836 194.870995 425.691836 435.107272 0.142658 156.210644-80.887155 293.019783-202.003901 369.769853z m-223.687935-652.803567c-152.929507 0-276.756757 126.537754-276.756757 282.748398 0 156.210644 123.82725 282.748398 276.756757 282.748398 152.786849 0 276.614099-126.537754 276.614099-282.748398 0.142658-156.067986-123.684592-282.748398-276.614099-282.748398z m0 435.249931c-82.313736 0-148.935079-68.33324-148.935079-152.358875s66.621343-152.358874 148.935079-152.358874 148.935079 68.190582 148.935079 152.358874c0.142658 84.025634-66.621343 152.358874-148.935079 152.358875z" fill="#359AD7" p-id="3868"></path></svg>