<svg t="1598432315750" class="icon" viewBox="0 0 1024 1024" version="1.1" xmlns="http://www.w3.org/2000/svg" p-id="12483" width="200" height="200"><path d="M895.9 192.3H127.7c-34.8 0-63 28.3-63 63v513.2c0 34.7 28.3 63 63 63h768.2c34.8 0 63-28.3 63-63V255.3c0-34.7-28.3-63-63-63z m13.4 63v513.2c0 7.4-6.1 13.5-13.5 13.5H127.7c-7.5 0-13.5-6-13.5-13.5V255.3c0-7.4 6.1-13.5 13.5-13.5h768.2c7.4 0 13.4 6.1 13.4 13.5z" fill="#2989FF" p-id="12484"></path><path d="M432.4 525.5c26.7-20.4 44.3-52.2 44.3-88.3 0-61.4-49.9-111.4-111.3-111.4S254 375.8 254 437.2c0 36 17.6 67.9 44.3 88.3C238.8 551.4 197 610.7 197 679.7c0 10 8.1 18.2 18.2 18.2 10 0 18.2-8.2 18.2-18.2 0-71.6 57.3-129.7 128.4-131.5 1.2 0 2.3 0.4 3.5 0.4 1.2 0 2.3-0.4 3.5-0.4 71.1 1.8 128.4 60 128.4 131.5 0 10 8.1 18.2 18.2 18.2s18.2-8.2 18.2-18.2c0-69-41.8-128.3-101.2-154.2m-142-88.3c0-41.4 33.6-75 74.9-75 41.3 0 74.9 33.6 74.9 75 0 40.1-31.8 72.6-71.4 74.5-1.2-0.1-2.3-0.4-3.5-0.4-1.2 0-2.3 0.3-3.5 0.4-39.6-1.9-71.4-34.4-71.4-74.5" fill="#2989FF" p-id="12485"></path><path d="M814.9 326c-14.7 0-26.7 12-26.7 26.7 0 3.4 0.8 6.6 1.9 9.6L712 460c-1.2-0.2-2.4-0.7-3.7-0.7-2.3 0-4.4 0.8-6.5 1.3L627 385.8c0.6-2.1 1.3-4.2 1.3-6.5 0-14.7-12-26.6-26.6-26.6-14.7 0-26.6 12-26.6 26.6 0 5.3 2 10 4.7 14.2L520 512.9c-13.8 1-24.9 12.2-24.9 26.3 0 14.7 12 26.6 26.7 26.6s26.7-12 26.7-26.6c0-5.3-2-10-4.7-14.2l59.7-119.5c1.6-0.1 3.1-0.6 4.7-1l74.8 74.8c-0.6 2.1-1.3 4.2-1.3 6.5 0 14.7 12 26.7 26.6 26.7 14.7 0 26.6-12 26.6-26.7 0-3.4-0.8-6.6-1.9-9.5l78.2-97.8c1.2 0.2 2.3 0.7 3.6 0.7 14.7 0 26.6-12 26.6-26.6 0.1-14.6-11.8-26.6-26.5-26.6z m0 0" fill="#2989FF" p-id="12486"></path></svg>