<svg t="1598432601430" class="icon" viewBox="0 0 1024 1024" version="1.1" xmlns="http://www.w3.org/2000/svg" p-id="13251" width="200" height="200"><path d="M660.742 606.112l-132.74-76.765L528.002 320.001c0-17.665-14.338-32-32-32-17.663 0-32 14.335-32 32l0 224.001c0 11.87 14.752 21.825 24.352 27.33 2.655 4 9.95 7.615 14.4 10.175l131.998 80c15.3 8.83 31.87 3.585 40.705-11.715C684.292 634.497 676.062 614.946 660.742 606.112zM852.482 368.044c-18.62-44.523-45.26-84.483-79.17-118.79-33.915-34.33-73.43-61.257-117.435-80.078-45.54-19.5-93.925-29.38-143.788-29.38-49.868 0-98.25 9.88-143.816 29.38-43.975 18.82-83.495 45.748-117.405 80.078-33.915 34.305-60.558 74.268-79.17 118.79-7.638 18.248-13.815 37.12-18.455 56.332l-18.43-41.918c-4.46-10.14-14.44-16.708-25.44-16.708-3.91 0-7.717 0.78-11.29 2.398-6.802 3.075-12.015 8.603-14.7 15.64-2.66 7.012-2.475 14.675 0.545 21.533l57.09 129.97c0.285 0.68 0.6 1.38 0.99 2.09 0.025 0.05 0.08 0.15 0.105 0.205 0.34 0.625 0.65 1.175 0.99 1.695 0.025 0.025 0.055 0.08 0.08 0.13 0.285 0.42 0.572 0.89 0.91 1.305 0.105 0.185 0.262 0.39 0.42 0.6 0.232 0.285 0.44 0.545 0.65 0.805 0.315 0.37 0.65 0.76 0.99 1.125l0.077 0.13c0.183 0.155 0.338 0.365 0.523 0.52 0.18 0.185 0.365 0.365 0.545 0.545l0.08 0.08c0.232 0.21 0.467 0.44 0.702 0.68 0.207 0.155 0.392 0.34 0.572 0.495 0.34 0.285 0.705 0.545 1.07 0.854 0.102 0.081 0.182 0.16 0.285 0.211 0.47 0.365 0.99 0.73 1.54 1.069l0 0c0.025 0.025 0.075 0.05 0.102 0.081 0.495 0.31 1.018 0.625 1.538 0.91l0.185 0.105c1.145 0.6 2.317 1.145 3.49 1.59 0.025 0.025 0.055 0.025 0.08 0.055 0.52 0.15 1.04 0.36 1.615 0.52l0.185 0.05 0.155 0.055c0.52 0.155 1.015 0.285 1.485 0.39l0.025 0 0.235 0.055c0.025 0.025 0.05 0.025 0.102 0.025 0.523 0.105 1.095 0.205 1.643 0.315 0.207 0 0.39 0.05 0.6 0.075l0.105 0c0.34 0.055 0.677 0.075 0.99 0.135l0.13 0c0.235 0 0.47 0.05 0.705 0.05 0.34 0 0.678 0.025 1.015 0.05l0.08 0c0.185 0 0.365 0 0.575 0 0.728 0 1.485-0.05 2.32-0.1l0.05 0c0.025 0 0.08 0 0.105 0 0.755-0.08 1.512-0.19 2.24-0.315 0.13 0 0.235-0.055 0.34-0.055 0.755-0.155 1.46-0.31 2.11-0.47 0.105-0.05 0.21-0.075 0.315-0.1 0.025 0 0.052 0 0.077 0 0.522-0.185 1.098-0.37 1.668-0.58l0.08-0.02c0.182-0.055 0.337-0.105 0.52-0.185 0.495-0.185 0.965-0.395 1.435-0.6 0.025 0 0.05-0.025 0.075-0.025 0.08-0.05 0.158-0.08 0.235-0.105 0.235-0.105 0.442-0.205 0.625-0.315 0.68-0.34 1.252-0.65 1.8-0.96 0.08-0.055 0.183-0.105 0.26-0.16l0.08-0.05c1.51-0.91 2.92-1.955 4.195-3.1l105.755-93.743c11.55-10.243 12.695-28.075 2.58-39.752-5.29-6.1-12.902-9.62-20.932-9.62-6.753 0-13.268 2.502-18.353 6.987l-50.205 44.522c28.1-147.803 157.97-257.443 308.121-257.443 173.008 0 313.748 142.38 313.748 317.398 0 175.021-140.74 317.371-313.748 317.371-74.867 0-147.36-27.11-204.11-76.325-5.055-4.375-11.47-6.775-18.115-6.775-8.16 0-15.85 3.57-21.143 9.825-10.01 11.785-8.652 29.615 3.022 39.73 66.838 57.945 152.21 89.88 240.346 89.88 49.868 0 98.248-9.88 143.808-29.375 43.98-18.82 83.5-45.75 117.411-80.08 33.92-34.31 60.56-74.27 79.17-118.79 19.26-46.09 29.04-95.02 29.04-145.458C881.512 463.061 871.742 414.131 852.482 368.044L852.482 368.044z" fill="#2183e8" p-id="13252"></path></svg>