<svg t="1598432934484" class="icon" viewBox="0 0 1024 1024" version="1.1" xmlns="http://www.w3.org/2000/svg" p-id="14707" width="200" height="200"><path d="M1020.655 835.942L915.83 503.603a71.782 71.782 0 0 0-68.471-50.193h-81.237c-53.197 86.033-127.505 156.69-176.999 203.554l-8.567 8.124a99.26 99.26 0 0 1-68.54 27.375 99.447 99.447 0 0 1-68.727-27.512l-9.95-9.454C381.15 606.02 308.719 537.088 257.007 453.41h-86.904a71.782 71.782 0 0 0-68.71 50.978L3.174 828.723c-16.162 53.368 32.035 103.97 86.119 90.454l221.44-55.365a71.782 71.782 0 0 1 60.757 12.425l175.582 133.017a71.765 71.765 0 0 0 61.491 12.237l361.762-94.498a71.782 71.782 0 0 0 50.33-91.05z" p-id="14708" fill="#1296db"></path><path d="M490.377 615.492c12.117 11.537 31.06 11.606 43.178 0.086 77.892-73.984 229.035-211.422 229.035-364.8C762.59 112.367 650.394 0.17 512 0.17S261.41 112.367 261.41 250.76c0 153.89 149.197 288.819 228.967 364.731zM512 156.69a94.089 94.089 0 1 1 0 188.16 94.089 94.089 0 0 1 0-188.16z" p-id="14709" fill="#1296db"></path></svg>