<svg t="1595468063930" class="icon" viewBox="0 0 1024 1024" version="1.1" xmlns="http://www.w3.org/2000/svg" p-id="2110" width="200" height="200"><path d="M317.078588 392.493176h421.647059a30.117647 30.117647 0 0 0 0-60.235294h-421.647059a30.117647 30.117647 0 1 0 0 60.235294z m120.470588-210.823529h180.705883a90.352941 90.352941 0 1 0 0-180.705882h-180.705883a90.352941 90.352941 0 0 0 0 180.705882z m0-120.470588h180.705883a30.117647 30.117647 0 0 1 0 60.235294h-180.705883a30.117647 30.117647 0 1 1 0-60.235294z m331.294118 481.882353a30.117647 30.117647 0 0 0-30.117647-30.117647h-421.647059a30.117647 30.117647 0 1 0 0 60.235294h421.647059a30.117647 30.117647 0 0 0 30.117647-30.117647z m90.352941-481.882353h-90.352941v60.235294h90.352941a30.117647 30.117647 0 0 1 30.117647 30.117647v722.823529a30.117647 30.117647 0 0 1-30.117647 30.117647h-662.588235a30.117647 30.117647 0 0 1-30.117647-30.117647v-722.823529a30.117647 30.117647 0 0 1 30.117647-30.117647h90.352941v-60.235294h-90.352941a90.352941 90.352941 0 0 0-90.352941 90.352941v722.823529a90.352941 90.352941 0 0 0 90.352941 90.352942h662.588235a90.352941 90.352941 0 0 0 90.352941-90.352942v-722.823529a90.352941 90.352941 0 0 0-90.352941-90.352941z m-542.117647 632.470588a30.117647 30.117647 0 1 0 0 60.235294h240.941177a30.117647 30.117647 0 1 0 0-60.235294h-240.941177z" fill="#2877F6" p-id="2111"></path></svg>