<svg t="1595817033922" class="icon" viewBox="0 0 1024 1024" version="1.1" xmlns="http://www.w3.org/2000/svg" p-id="1576" width="200" height="200"><path d="M1010.57024 479.19616a28.52352 28.52352 0 0 0 9.48736-39.20384 28.47232 28.47232 0 0 0-39.20384-9.472l-0.64 0.37376c-13.91616-5.76-16.9728-12.93312-18.06336-15.63136-6.72256-16.83456 4.05504-45.14816 12.57472-60.99968l34.69312-18.98496a28.57472 28.57472 0 0 0 14.83264-24.94464 28.5952 28.5952 0 0 0-14.70976-25.04192l-400.7168-222.15168a28.50304 28.50304 0 0 0-27.06432-0.31232L60.93824 335.90784c-0.59392 0.32768-1.1008 0.68608-1.65376 1.02912-0.2304 0.15872-0.50688 0.2304-0.7168 0.37376-0.29696 0.17408-0.53248 0.37376-0.80896 0.5632l-0.15872 0.09216C-18.9696 388.95104 4.41856 470.66112 27.648 506.91584c1.44896 2.24768 3.3024 4.17792 5.2992 5.92896C11.264 532.53632 3.57888 554.1376 1.13152 570.06592c-7.7056 50.16064 26.5984 93.68064 30.52032 98.46784 1.86368 2.26816 4.03968 4.2496 6.51264 5.84192l423.1168 274.93888a28.49792 28.49792 0 0 0 30.26944 0.52736l518.90688-312.64768a28.52352 28.52352 0 0 0 9.7024-39.168 28.5184 28.5184 0 0 0-39.15264-9.7024l-7.3216 4.4288c-4.84864-3.7888-8.46848-8.38144-10.68544-14.1824-8.76544-22.912 2.1248-58.34752 9.42592-76.08832l38.144-23.28576z m-101.46816-42.94656a78.9504 78.9504 0 0 0 17.99168 27.06944L481.9968 734.97088 72.832 471.2448c-7.13728-13.27616-21.66272-48.15872 4.0192-75.45856l383.19104 224.27648c4.36224 2.56 9.33888 3.93216 14.40768 3.91168a28.7744 28.7744 0 0 0 13.68064-3.4816l415.35488-227.26656c-1.17248 14.16192 0 28.90752 5.61664 43.02336z m0.49664 162.5088a90.42944 90.42944 0 0 0 13.85472 24.22784L477.3888 891.7504l-403.83488-262.41024c-5.49376-7.94112-19.18976-30.18752-16.06656-50.6112 1.81248-11.72992 9.344-21.76 23.05024-30.72 0.9728-0.65024 1.82272-1.4592 2.70336-2.2016l382.8736 246.78912c4.608 2.97984 9.97376 4.55168 15.46752 4.55168a28.47744 28.47744 0 0 0 14.85824-4.16256l406.80448-248.27904c-1.50528 17.67424-0.3072 36.44416 6.35392 54.05184z" fill="#13227a" p-id="1577"></path></svg>