<svg t="1597993324548" class="icon" viewBox="0 0 1024 1024" version="1.1" xmlns="http://www.w3.org/2000/svg" p-id="2091" width="200" height="200"><path d="M902.4 376.8L743.9 535.2c-26.9 26.9-70.6 26.9-97.5 0L487.8 376.8c-26.9-27-26.9-70.6 0-97.6l158.6-158.5c26.9-26.9 70.6-26.9 97.5 0l158.6 158.5c26.9 26.9 26.9 70.6-0.1 97.6z m-43.9-70.6L717.1 164.9c-12.1-12-31.5-12-43.5 0L532.3 306.2c-12 12-12 31.5 0 43.5l141.4 141.4c12 11.9 31.5 12 43.5 0l141.3-141.3c12.1-12.1 12.1-31.6 0-43.6zM393.3 922.8H169.1c-38.1-0.1-69-30.9-69-69V629.7c0-38 30.9-69 69-69h224.2c38.1 0.1 68.9 30.9 69 69v224.1c-0.1 38.1-30.9 68.9-69 69z m0-413.8H169.1c-38.1-0.1-69-30.9-69-69V215.9c0-38 30.9-69 69-69h224.2c38.1 0.1 68.9 30.9 69 69V440c-0.1 38.1-30.9 68.9-69 69zM583 560.7h224.2c38.1 0.1 68.9 30.9 69 69v224.1c0 38-30.9 69-69 69H583c-38.1-0.1-69-30.9-69-69V629.7c0-38.1 31-68.9 69-69z m0 0" p-id="2092" fill="#1296db"></path></svg>