<svg t="1594630994171" class="icon" viewBox="0 0 1024 1024" version="1.1" xmlns="http://www.w3.org/2000/svg" p-id="5880" width="200" height="200"><path d="M816.832 440.384A376.384 376.384 0 1 1 64 440.384a376.384 376.384 0 0 1 752.832 0z m-64 0a312.384 312.384 0 1 0-624.832 0 312.384 312.384 0 0 0 624.832 0z" p-id="5881" fill="#cccccc"></path><path d="M640.008081 685.262915m22.627417-22.627417l0 0q22.627417-22.627417 45.254834 0l226.27417 226.27417q22.627417 22.627417 0 45.254834l0 0q-22.627417 22.627417-45.254834 0l-226.27417-226.27417q-22.627417-22.627417 0-45.254834Z" p-id="5882" fill="#cccccc"></path></svg>