<svg t="1598432019906" class="icon" viewBox="0 0 1024 1024" version="1.1" xmlns="http://www.w3.org/2000/svg" p-id="10820" width="200" height="200"><path d="M512 512m-512 0a512 512 0 1 0 1024 0 512 512 0 1 0-1024 0Z" fill="#5BD171" p-id="10821"></path><path d="M447.402667 281.984c42.24-6.186667 85.184-6.186667 127.424 0 29.696 5.845333 59.413333 10.517333 87.317333 18.048a61.866667 61.866667 0 0 1 43.946667 40.533333 2947.626667 2947.626667 0 0 0 38.016 99.413334c2.368 5.568 9.536 13.717333 13.696 13.162666a43.861333 43.861333 0 0 1 50.453333 34.410667c1.493333 5.930667 1.493333 12.16 0 18.090667l-33.941333 9.002666c2.112 11.562667 3.498667 23.253333 4.16 34.986667v161.642667c-0.405333 9.813333-3.946667 19.2-10.133334 26.837333-31.36 5.930667-63.466667 6.528-95.018666 1.749333-21.973333-13.717333-8.32-36.821333-15.445334-55.402666H369.194667c-5.653333 19.84-8.917333 53.077333-15.445334 55.402666-32.213333 5.525333-65.109333 5.525333-97.301333 0a51.541333 51.541333 0 0 1-10.688-30.933333c-1.792-23.317333-1.792-45.44-1.792-68.202667 0-42.261333 0-84.565333 1.792-127.104l-31.573333-8.192a33.536 33.536 0 0 1 0-14.293333c8.938667-23.317333 20.821333-41.386667 51.413333-38.741333 3.562667 0 10.389333-7.04 12.458667-12.266667a774.378667 774.378667 0 0 0 29.717333-79.573333 100.522667 100.522667 0 0 1 89.024-72.170667c16.341333-2.922667 33.28-4.970667 49.6-7.573333l0.896 1.152 0.106667 0.021333z m-131.498667 180.181333a956.053333 956.053333 0 0 0 388.48 0c-10.88-32.298667-21.866667-61.226667-29.568-90.410666a49.130667 49.130667 0 0 0-49.301333-38.762667 5626.368 5626.368 0 0 0-184.746667-5.269333c-20.074667 0.768-40 3.797333-59.413333 9.045333a33.749333 33.749333 0 0 0-21.653334 14.570667c-16.64 35.306667-29.12 71.744-43.797333 110.826666z m25.237333 137.6c10.645333 0.576 21.290667 0 31.786667-1.728a29.653333 29.653333 0 0 0 19.328-14.293333c1.472-4.373333-5.269333-15.146667-11.306667-17.792a702.357333 702.357333 0 0 0-74.24-29.162667c-12.48-4.074667-26.730667-3.2-29.696 13.973334-5.952 25.386667 0 39.466667 19.306667 43.477333 15.146667 2.901333 29.674667 3.498667 46.336 4.949333l-1.493333 0.576z m342.464 0c15.637333-1.066667 31.210667-3.029333 46.656-5.824 22.250667-4.949333 17.493333-22.741333 16.896-38.186666-0.597333-15.466667-8.874667-22.762667-21.034666-19.264a651.178667 651.178667 0 0 0-89.088 33.237333c-13.162667 6.144-8.32 23.04 6.528 26.304 13.290667 1.941333 26.666667 3.114667 40.106666 3.498667l-0.064 0.234666z" fill="#E7FFEC" p-id="10822"></path></svg>