<svg t="1594950723196" class="icon" viewBox="0 0 1024 1024" version="1.1" xmlns="http://www.w3.org/2000/svg" p-id="6466" width="200" height="200"><path d="M511.34745 506.629725m-506.629725 0a506.629725 506.629725 0 1 0 1013.25945 0 506.629725 506.629725 0 1 0-1013.25945 0Z" fill="#E6E6E6" p-id="6467"></path><path d="M521.480045 1022.480111l309.246784-32.930932S815.325285 791.760934 603.959364 761.059173a746.87354 746.87354 0 0 0-82.479319-2.330497v263.447457z" fill="#484848" p-id="6468"></path><path d="M519.960155 1022.480111l-308.030872-32.930932S227.634804 791.558282 437.582162 760.755195a739.679398 739.679398 0 0 1 82.377993-2.330497z" fill="#333333" p-id="6469"></path><path d="M443.459067 644.027706h164.046705V911.933505H443.459067z" fill="#FFDDB8" p-id="6470"></path><path d="M443.459067 639.366713h164.046705v47.015238l-164.046705 91.193351z" fill="#E5C6A5" p-id="6471"></path><path d="M521.480045 1022.176133h51.980209c6.890164-10.132594 88.052246-242.169009 87.342965-245.310113s-106.493568 18.643974-106.493568 18.643974L521.480045 828.035622z" fill="#FFFFFF" p-id="6472"></path><path d="M523.810541 1022.480111H471.830332c-6.890164-10.132594-88.052246-241.865031-87.444291-245.107461s109.026717 18.137344 109.026717 18.137344l30.397783 32.72828z" fill="#E0ECFF" p-id="6473"></path><path d="M446.093542 776.967346h81.263407v244.600831h-27.96596l7.599445-111.458539" fill="#333333" p-id="6474"></path><path d="M607.30312 776.967346h-81.263408v245.411439h27.965961l-7.599446-111.863843" fill="#333333" p-id="6475"></path><path d="M612.673395 723.365921l55.526618 41.948941s1.114585 118.855333 0 114.396992-141.856323-102.744508-141.856323-102.744508z m-172.254106 0l-55.72927 42.050267s-1.114585 118.956659 0 114.498318 141.856323-102.845834 141.856323-102.845834z" fill="#FFFFFF" p-id="6476"></path><path d="M521.480045 207.211557v462.350287c67.888383-3.141104 150.16505-45.292697 188.871561-112.877102 20.265189-34.754799 21.4811-74.575896 21.4811-117.9434 0-127.974669-89.977439-231.529784-210.352661-231.529785z" fill="#FFDDB8" p-id="6477"></path><path d="M521.480045 207.211557v462.350287c-67.989709-3.141104-150.16505-45.292697-188.972888-112.877102-20.265189-34.754799-21.4811-74.575896-21.4811-117.9434 0-127.974669 89.977439-231.529784 210.453988-231.529785z" fill="#F5D4B1" p-id="6478"></path><path d="M327.846164 423.238472c3.850386-52.790817 30.397783-113.485058 119.969919-147.125272 21.582426 4.559668 66.46982 39.314467 146.41599 4.762319 54.412032-23.406293 122.807045 81.060756 132.534336 123.820305 7.802098 34.349495-7.295468 30.397783 17.73204 23.304968 5.674253-4.053038 40.530378-33.336236-17.73204-245.208787-118.044726-92.510588-200.422719-93.523847-200.422719-93.523847s-151.988917 2.735801-195.15377 105.075004c-30.397783 98.69147-49.345735 140.539086-25.331486 224.234317 12.665743-28.877894 11.044528-20.771819 21.98773 4.660993z" fill="#5C3E31" p-id="6479"></path><path d="M521.480045 230.009895l236.697407 14.48961s33.640214-12.868395 63.734019-60.795567C880.477868 104.771027 700.928293 64.848605 521.480045 64.645953z" fill="#484848" p-id="6480"></path><path d="M522.59463 230.009895l-235.8868 14.48961s-33.437562-12.868395-63.430042-60.795567C164.812718 104.771027 343.653011 64.848605 522.695956 64.645953z" fill="#333333" p-id="6481"></path><path d="M520.162807 365.685335c6.282209 0 27.965961 3.141104 141.856323-11.044528 162.121512-20.265189 91.19335-110.141302 91.193351-110.141302l-233.049674-2.330496v123.516326z" fill="#484848" p-id="6482"></path><path d="M522.59463 365.887987c-6.383535 0-30.397783 2.431823-144.490798-11.652483-162.121512-20.265189-91.19335-109.735998-91.19335-109.735999l233.049673-2.330496s2.533149 56.843855 2.533149 123.718978z" fill="#333333" p-id="6483"></path><path d="M731.73138 174.483277H521.480045v97.982189h210.251335a24.318227 24.318227 0 0 0 25.331487-23.304967v-51.372254a24.419553 24.419553 0 0 0-25.331487-23.304968z" fill="#575757" p-id="6484"></path><path d="M310.924731 174.483277H521.480045v97.982189H310.924731a24.318227 24.318227 0 0 1-25.331486-23.304967v-51.372254a24.216901 24.216901 0 0 1 25.331486-23.304968z" fill="#444444" p-id="6485"></path><path d="M577.209314 210.757966l-36.781318-6.383535-18.036018-30.397783-18.137344 30.397783-36.781318 6.383535 25.635464 25.027508-4.660993 33.944192 33.741539-14.590937 33.842866 14.590937-4.154364-33.944192z" fill="#E3B558" p-id="6486"></path><path d="M753.71911 383.924006c13.577677 4.154364 17.428063 26.952701 8.714032 50.662972s-26.851375 39.821096-40.530378 35.464081-17.326737-26.952701-8.612706-50.662973 26.648724-39.71977 40.530378-35.565406z" fill="#FFDDB8" p-id="6487"></path><path d="M291.368824 382.910746c-13.577677 4.25569-17.428063 27.256679-8.714032 51.47358s26.750049 40.530378 40.530378 36.072037 17.428063-27.358005 8.714032-51.47358-26.750049-40.530378-40.530378-36.072037z" fill="#F5D4B1" p-id="6488"></path></svg>