<svg t="1594879904902" class="icon" viewBox="0 0 1024 1024" version="1.1" xmlns="http://www.w3.org/2000/svg" p-id="3834" width="200" height="200"><path d="M559.36 102.4l-15.36-8.96s-13.226667 9.386667-19.626667 9.386667c-5.12 0-12.373333-9.386667-12.373333-9.386667s-7.68 8.96-12.8 9.386667c-5.12 0.426667-19.626667-9.386667-19.626667-9.386667l-15.36 9.386667s4.266667 16.213333-0.853333 40.96c-6.4 31.573333 11.52 46.08 20.48 52.053333 13.226667 8.533333 28.16 13.653333 28.16 13.653333s13.653333-5.12 28.16-13.653333c12.8-7.68 25.6-21.76 20.48-52.48-3.84-22.613333-1.28-40.96-1.28-40.96zM537.6 192.426667c-12.373333 7.68-25.173333 12.8-25.173333 12.8s-13.226667-4.693333-25.173334-12.373334c-8.106667-5.12-24.32-18.773333-18.773333-46.933333 4.266667-22.186667 0.853333-38.4 0.853333-38.4l12.8-8.106667s13.226667 9.386667 17.92 8.96c5.546667-0.426667 12.8-8.106667 12.8-8.106666s6.4 8.106667 11.52 8.106666c5.546667 0 18.346667-8.533333 18.346667-8.533333l12.8 6.826667s-2.133333 18.346667 0.853333 38.4c3.84 28.16-7.253333 40.533333-18.773333 47.36z m-17.493333-50.346667l18.773333 2.133333-14.08 12.373334 3.413333 17.493333-16.64-8.533333-16.64 8.533333 3.413334-17.493333-13.653334-12.373334 18.773334-2.133333 8.533333-16.213333 8.106667 16.213333zM576 68.266667H448L256 147.626667l47.36 93.013333c32-4.266667 110.933333-13.653333 208.64-13.653333s177.066667 9.386667 208.64 13.653333L768 147.626667 576 68.266667z m-34.133333 130.986666c-15.36 8.96-29.866667 14.506667-29.866667 14.506667s-15.36-5.546667-29.866667-14.506667c-9.813333-5.973333-28.586667-21.76-21.76-55.466666 5.12-26.453333-0.853333-43.093333-0.853333-43.093334l20.48-11.946666s14.08 10.666667 19.626667 9.813333c5.546667-0.426667 12.8-11.52 12.8-11.52s7.68 11.52 12.8 11.52c6.826667 0 19.626667-9.813333 19.626666-9.813333l19.626667 11.52s-3.84 19.2 0 43.093333c4.693333 32.853333-8.533333 47.786667-22.613333 55.893333z m172.373333 72.106667c-14.08 28.16-59.306667 66.56-202.24 66.56s-187.733333-38.4-202.24-66.56c35.413333-4.693333 110.506667-12.8 202.24-12.8s166.826667 8.106667 202.24 12.8z m5.546667 43.946667v6.4c0 126.72-93.013333 285.44-208.213334 285.44S303.786667 448.853333 303.786667 322.133333v-6.4c12.373333 11.52 27.733333 20.906667 46.08 29.013334 39.68 16.64 93.866667 25.173333 161.706666 25.173333s122.026667-8.533333 161.706667-25.173333c19.2-8.533333 34.56-17.92 46.506667-29.44zM546.986667 955.733333H477.013333L422.4 861.44h179.2l-54.613333 94.293333z m28.16 0h-9.813334l55.04-94.293333h9.813334l-55.04 94.293333z m-208.213334-157.866666h-9.813333L286.72 677.546667c2.56-1.28 5.546667-2.133333 8.106667-2.986667L366.933333 797.866667z m-144.213333-86.613334c2.133333-1.706667 4.693333-2.986667 7.253333-4.266666l145.066667 248.746666h-9.813333l-142.506667-244.48z m235.946667 244.48h-9.813334l-55.04-94.293333h9.813334l55.04 94.293333z m-148.48-286.72c59.733333-20.48 128.426667-30.72 201.813333-30.72s142.08 9.813333 201.813333 30.72l-75.093333 129.28H385.28l-75.093333-129.28z m36.266666 286.72h-250.453333c0-106.24 43.52-183.466667 113.493333-235.093333l136.96 235.093333z m302.506667 0l145.066667-248.746666c2.56 1.706667 4.693333 2.986667 7.253333 4.266666l-142.506667 244.48h-9.813333z m279.04 0H677.546667l136.96-235.093333c69.973333 51.626667 113.493333 128.853333 113.493333 235.093333z m-190.72-278.186666l-69.973333 120.32H657.066667l71.68-123.306667c2.986667 1.28 5.546667 2.133333 8.533333 2.986667z" fill="#2DB7F5" p-id="3835"></path></svg>