<svg t="1594880607001" class="icon" viewBox="0 0 1024 1024" version="1.1" xmlns="http://www.w3.org/2000/svg" p-id="7158" width="200" height="200"><path d="M0 512c0 283.733333 228.266667 512 512 512s512-228.266667 512-512S795.733333 0 512 0 0 228.266667 0 512z" fill="#CBDFF7" p-id="7159"></path><path d="M672 260.266667h-81.066667V213.333333h81.066667c12.8 0 23.466667 10.666667 23.466667 23.466667 0 12.8-10.666667 23.466667-23.466667 23.466667zM554.666667 213.333333h-70.4v46.933334H554.666667V213.333333z m292.266666 251.733334v14.933333c0 8.533333-8.533333 17.066667-17.066666 17.066667l-23.466667 4.266666c6.4 14.933333 10.666667 29.866667 10.666667 49.066667l8.533333 98.133333v132.266667c0 17.066667-12.8 29.866667-29.866667 29.866667h-46.933333c-17.066667 0-29.866667-12.8-29.866667-29.866667v-38.4H320v38.4c0 17.066667-12.8 29.866667-29.866667 29.866667h-46.933333c-17.066667 0-29.866667-12.8-29.866667-29.866667v-117.333333-6.4-8.533334l8.533334-98.133333c0-19.2 4.266667-36.266667 10.666666-49.066667l-23.466666-4.266666c-8.533333 0-17.066667-8.533333-17.066667-17.066667v-14.933333c0-8.533333 8.533333-17.066667 17.066667-17.066667h61.866666c2.133333 0 6.4 0 8.533334 2.133333l27.733333-83.2c8.533333-38.4 36.266667-70.4 83.2-70.4h260.266667c40.533333 0 74.666667 23.466667 83.2 70.4l27.733333 83.2c2.133333-2.133333 4.266667-2.133333 8.533333-2.133333H832c6.4 0 14.933333 8.533333 14.933333 17.066667z m-520.533333-34.133334l-6.4 29.866667c2.133333 21.333333 27.733333 38.4 51.2 38.4h298.666667c21.333333 0 49.066667-17.066667 51.2-38.4l-8.533334-29.866667-21.333333-55.466666c-2.133333-10.666667-6.4-12.8-12.8-21.333334H360.533333c-6.4 8.533333-10.666667 10.666667-12.8 21.333334v2.133333l-21.333333 53.333333z m61.866667 211.2c0-25.6-21.333333-46.933333-46.933334-46.933333s-46.933333 21.333333-46.933333 46.933333 21.333333 46.933333 46.933333 46.933334 46.933333-23.466667 46.933334-46.933334z m211.2-27.733333c0-8.533333-6.4-12.8-12.8-12.8h-130.133334c-8.533333 0-12.8 6.4-12.8 12.8v38.4c0 8.533333 6.4 12.8 12.8 12.8h130.133334c8.533333 0 12.8-6.4 12.8-12.8v-38.4z m145.066666 27.733333c0-25.6-21.333333-46.933333-46.933333-46.933333s-46.933333 21.333333-46.933333 46.933333 21.333333 46.933333 46.933333 46.933334 46.933333-23.466667 46.933333-46.933334zM366.933333 260.266667H448V213.333333h-81.066667c-12.8 0-23.466667 10.666667-23.466666 23.466667 0 12.8 10.666667 23.466667 23.466666 23.466667z" fill="#081F45" p-id="7160"></path></svg>