<svg t="1594630293333" class="icon" viewBox="0 0 1024 1024" version="1.1" xmlns="http://www.w3.org/2000/svg" p-id="2808" width="200" height="200"><path d="M515.541 7.083C235.182 7.083 7.083 235.203 7.083 515.54S235.203 1024 515.54 1024 1024 795.88 1024 515.541 795.9 7.083 515.541 7.083z m0 974.781c-257.132 0-466.301-209.19-466.301-466.323C49.24 258.41 258.409 49.22 515.541 49.22s466.302 209.19 466.302 466.322S772.674 981.864 515.54 981.864z m99.033-457.687c47.751-31.969 79.231-86.399 79.231-148.188 0-98.437-79.805-178.242-178.242-178.242-98.438 0-178.243 79.805-178.243 178.242 0 61.81 31.48 116.22 79.252 148.188-100.266 39.52-171.244 137.17-171.244 251.454 0 0.234 0 0.446 0.021 0.659 0 0.043-0.021 0.106-0.021 0.149 0 15.612 12.655 28.246 28.268 28.246 15.59 0 21.886-12.634 21.886-28.246 0-0.34-0.085-0.66-0.106-1.021 0.106-118.006 102.16-219.995 220.208-219.995 118.112 0 220.208 102.095 220.208 220.208 0 0.148-1.468 29.054 21.972 29.054 15.506 0 28.076-12.57 28.076-28.055 0-0.064-0.021-0.127-0.021-0.212 0-0.256 0.021-0.51 0.021-0.787-0.042-114.284-71.042-211.934-171.266-251.454z m-99.033-13.443c-74.402 0-134.724-60.321-134.724-134.724 0-74.423 60.322-134.723 134.724-134.723 74.424 0 134.724 60.321 134.724 134.723s-60.321 134.724-134.724 134.724z" fill="#cccccc" p-id="2809"></path></svg>