<svg t="1594630345223" class="icon" viewBox="0 0 1024 1024" version="1.1" xmlns="http://www.w3.org/2000/svg" p-id="3696" width="200" height="200"><path d="M512 1023.997952a499.506201 499.506201 0 0 1-158.310083-973.412453 31.334337 31.334337 0 1 1 20.479959 59.391881 437.451925 437.451925 0 1 0 291.429817 5.529589 31.334337 31.334337 0 1 1 21.913556-58.777482A499.301401 499.301401 0 0 1 512 1023.997952z" p-id="3697" fill="#cccccc"></path><path d="M522.649579 565.451669A31.334337 31.334337 0 0 1 491.520041 533.912532V31.334337a31.539137 31.539137 0 0 1 62.873474 0v502.578195a31.539137 31.539137 0 0 1-31.743936 31.539137z" p-id="3698" fill="#cccccc"></path></svg>